<svg width="400" height="300" viewBox="0 0 400 300" xmlns="http://www.w3.org/2000/svg">
  <defs>
    <linearGradient id="bg11" x1="0%" y1="0%" x2="100%" y2="100%">
      <stop offset="0%" style="stop-color:#0c4a6e;stop-opacity:1" />
      <stop offset="100%" style="stop-color:#0369a1;stop-opacity:1" />
    </linearGradient>
    <radialGradient id="mobile" cx="50%" cy="50%" r="50%">
      <stop offset="0%" style="stop-color:#38bdf8;stop-opacity:1" />
      <stop offset="100%" style="stop-color:#0284c7;stop-opacity:1" />
    </radialGradient>
  </defs>
  
  <!-- Background -->
  <rect width="400" height="300" fill="url(#bg11)" rx="20"/>
  
  <!-- Mobile Devices -->
  <!-- Phone 1 -->
  <rect x="50" y="60" width="60" height="100" fill="#1f2937" rx="12"/>
  <rect x="55" y="70" width="50" height="80" fill="url(#mobile)" rx="8"/>
  
  <!-- Phone Screen Content -->
  <rect x="58" y="75" width="44" height="8" fill="white" rx="4"/>
  <text x="80" y="82" text-anchor="middle" fill="#0c4a6e" font-family="Arial, sans-serif" font-size="6" font-weight="bold">Shopofinity</text>
  
  <!-- User Profile Icons -->
  <circle cx="65" cy="90" r="4" fill="white"/>
  <text x="65" y="93" text-anchor="middle" fill="#0c4a6e" font-family="Arial, sans-serif" font-size="4">👤</text>
  <text x="75" y="93" fill="white" font-family="Arial, sans-serif" font-size="5">Vendor</text>
  
  <circle cx="65" cy="105" r="4" fill="white"/>
  <text x="65" y="108" text-anchor="middle" fill="#0c4a6e" font-family="Arial, sans-serif" font-size="4">🛍️</text>
  <text x="75" y="108" fill="white" font-family="Arial, sans-serif" font-size="5">Buyer</text>
  
  <!-- Product Grid on Phone -->
  <rect x="60" y="115" width="12" height="12" fill="white" opacity="0.8" rx="2"/>
  <rect x="75" y="115" width="12" height="12" fill="white" opacity="0.8" rx="2"/>
  <rect x="90" y="115" width="12" height="12" fill="white" opacity="0.8" rx="2"/>
  
  <rect x="60" y="130" width="12" height="12" fill="white" opacity="0.8" rx="2"/>
  <rect x="75" y="130" width="12" height="12" fill="white" opacity="0.8" rx="2"/>
  <rect x="90" y="130" width="12" height="12" fill="white" opacity="0.8" rx="2"/>
  
  <!-- Phone 2 -->
  <rect x="290" y="60" width="60" height="100" fill="#1f2937" rx="12"/>
  <rect x="295" y="70" width="50" height="80" fill="url(#mobile)" rx="8"/>
  
  <!-- Payment Screen -->
  <rect x="298" y="75" width="44" height="8" fill="white" rx="4"/>
  <text x="320" y="82" text-anchor="middle" fill="#0c4a6e" font-family="Arial, sans-serif" font-size="6" font-weight="bold">Payment</text>
  
  <!-- Payment Methods -->
  <rect x="300" y="90" width="40" height="6" fill="#10b981" rx="3"/>
  <text x="320" y="95" text-anchor="middle" fill="white" font-family="Arial, sans-serif" font-size="4">Credit Card</text>
  
  <rect x="300" y="100" width="40" height="6" fill="#3b82f6" rx="3"/>
  <text x="320" y="105" text-anchor="middle" fill="white" font-family="Arial, sans-serif" font-size="4">Digital Wallet</text>
  
  <rect x="300" y="110" width="40" height="6" fill="#f59e0b" rx="3"/>
  <text x="320" y="115" text-anchor="middle" fill="white" font-family="Arial, sans-serif" font-size="4">Bank Transfer</text>
  
  <!-- Central Marketplace Hub -->
  <circle cx="200" cy="130" r="50" fill="#1e293b" opacity="0.9"/>
  <circle cx="200" cy="130" r="35" fill="#0369a1" opacity="0.8"/>
  <text x="200" y="125" text-anchor="middle" fill="white" font-family="Arial, sans-serif" font-size="12" font-weight="bold">Shopofinity</text>
  <text x="200" y="138" text-anchor="middle" fill="#38bdf8" font-family="Arial, sans-serif" font-size="8">Marketplace</text>
  
  <!-- Vendor Connections -->
  <line x1="110" y1="110" x2="165" y2="130" stroke="#10b981" stroke-width="3" opacity="0.8"/>
  <line x1="290" y1="110" x2="235" y2="130" stroke="#3b82f6" stroke-width="3" opacity="0.8"/>
  
  <!-- Feature Boxes -->
  <rect x="30" y="190" width="80" height="40" fill="#1e293b" opacity="0.9" rx="8"/>
  <text x="70" y="205" text-anchor="middle" fill="#10b981" font-family="Arial, sans-serif" font-size="9" font-weight="bold">Multi-Vendor</text>
  <text x="70" y="218" text-anchor="middle" fill="white" font-family="Arial, sans-serif" font-size="8">Platform</text>
  
  <rect x="120" y="190" width="80" height="40" fill="#1e293b" opacity="0.9" rx="8"/>
  <text x="160" y="205" text-anchor="middle" fill="#3b82f6" font-family="Arial, sans-serif" font-size="9" font-weight="bold">Cross-Platform</text>
  <text x="160" y="218" text-anchor="middle" fill="white" font-family="Arial, sans-serif" font-size="8">Mobile App</text>
  
  <rect x="210" y="190" width="80" height="40" fill="#1e293b" opacity="0.9" rx="8"/>
  <text x="250" y="205" text-anchor="middle" fill="#f59e0b" font-family="Arial, sans-serif" font-size="9" font-weight="bold">Payment</text>
  <text x="250" y="218" text-anchor="middle" fill="white" font-family="Arial, sans-serif" font-size="8">Gateway</text>
  
  <rect x="300" y="190" width="80" height="40" fill="#1e293b" opacity="0.9" rx="8"/>
  <text x="340" y="205" text-anchor="middle" fill="#ef4444" font-family="Arial, sans-serif" font-size="9" font-weight="bold">Delivery</text>
  <text x="340" y="218" text-anchor="middle" fill="white" font-family="Arial, sans-serif" font-size="8">System</text>
  
  <!-- Technology Stack -->
  <rect x="50" y="240" width="300" height="30" fill="#0f172a" opacity="0.9" rx="8"/>
  <text x="200" y="252" text-anchor="middle" fill="#38bdf8" font-family="Arial, sans-serif" font-size="9" font-weight="bold">Tech Stack</text>
  
  <text x="80" y="263" text-anchor="middle" fill="#61dafb" font-family="Arial, sans-serif" font-size="7">React Native</text>
  <text x="140" y="263" text-anchor="middle" fill="#06b6d4" font-family="Arial, sans-serif" font-size="7">Tailwind</text>
  <text x="190" y="263" text-anchor="middle" fill="#47a248" font-family="Arial, sans-serif" font-size="7">MongoDB</text>
  <text x="240" y="263" text-anchor="middle" fill="white" font-family="Arial, sans-serif" font-size="7">Next.js</text>
  <text x="300" y="263" text-anchor="middle" fill="#f7df1e" font-family="Arial, sans-serif" font-size="7">Node.js</text>
  
  <!-- Coming Soon Badge -->
  <rect x="140" y="15" width="120" height="25" fill="#ef4444" opacity="0.9" rx="12"/>
  <text x="200" y="30" text-anchor="middle" fill="white" font-family="Arial, sans-serif" font-size="11" font-weight="bold">Coming Soon 2026</text>
  
  <!-- Investment Ready Badge -->
  <rect x="30" y="15" width="100" height="20" fill="#10b981" opacity="0.9" rx="10"/>
  <text x="80" y="28" text-anchor="middle" fill="white" font-family="Arial, sans-serif" font-size="9" font-weight="bold">Investment Ready</text>
  
  <!-- Private Repo Badge -->
  <rect x="270" y="15" width="100" height="20" fill="#8b5cf6" opacity="0.9" rx="10"/>
  <text x="320" y="28" text-anchor="middle" fill="white" font-family="Arial, sans-serif" font-size="9" font-weight="bold">Private Repository</text>
  
  <!-- Connection Lines -->
  <path d="M70 160 Q100 170 130 160" stroke="#10b981" stroke-width="2" fill="none" opacity="0.6"/>
  <path d="M270 160 Q240 170 210 160" stroke="#3b82f6" stroke-width="2" fill="none" opacity="0.6"/>
  
  <!-- Title -->
  <text x="200" y="285" text-anchor="middle" fill="white" font-family="Arial, sans-serif" font-size="14" font-weight="bold">Shopofinity - Multi-Vendor Marketplace</text>
</svg>